REM Ripping Tool: trurip

FILE "Shadow of the Beast - Mashou no Okite (1992)(Victor)(JP).img" BINARY
  TRACK 01 AUDIO
    INDEX 01 00:00:00
  TRACK 02 MODE1/2352
    INDEX 00 00:44:66
    INDEX 01 00:47:65
  TRACK 03 AUDIO
    INDEX 00 01:24:70
    INDEX 01 01:26:70
  TRACK 04 AUDIO
    INDEX 01 06:41:53
  TRACK 05 AUDIO
    INDEX 01 10:51:70
  TRACK 06 AUDIO
    INDEX 01 17:39:02
  TRACK 07 AUDIO
    INDEX 01 24:32:68
  TRACK 08 AUDIO
    INDEX 01 31:18:11
  TRACK 09 AUDIO
    INDEX 01 38:12:64
  TRACK 10 MODE1/2352
    INDEX 00 44:26:33
    INDEX 01 44:29:32

REM DISC HASHES
REM CRC32 : 3a65cead
REM MD5   : ae1ec99be0cbf2aaaea72c7bf6a8f927
REM SHA1  : afaf183f9f54cd2c83b7e618c53f67cd6f27af82

REM Gap Append Method: Prev [crc32]
REM Trk 01: ccd25d2f
REM Trk 02: 9de25259
REM Trk 03: 72692892
REM Trk 04: 07f12516
REM Trk 05: f4dbb233
REM Trk 06: e5561988
REM Trk 07: 894858bf
REM Trk 08: a45fcabc
REM Trk 09: 00caeca6
REM Trk 10: a529613d

REM Gap Append Method: Prev [md5]
REM Trk 01: 7938d9aa88f644b60389fa8246f2052e
REM Trk 02: cea0a63532d62bab7022087b54216aa9
REM Trk 03: b3669a9b3eae19bbb7dfefcabb766291
REM Trk 04: e1d5748e589508c9aad12e282726b68b
REM Trk 05: cc77fd08e199f837879f670a66cda249
REM Trk 06: 38b4e0bc1446f7f8b954c20ae4b83516
REM Trk 07: 125134f252260f5411f4d8a05d9594d3
REM Trk 08: ea971b4915148663875e3ed87b3e9a4b
REM Trk 09: 2df09e92024d5327c18ddc83b4753f5f
REM Trk 10: b8f8df5d68470fd4e63aebe7b023c00d

REM Gap Append Method: Prev [sha1]
REM Trk 01: 0fc7f8840f23f43ebfb7041f71427c165f368105
REM Trk 02: 84e92e738a19e96e8cf48741e03a1fcf31793f87
REM Trk 03: 68e6cb1e8a03a96252ef7a43d41294696fe63bba
REM Trk 04: a625ca4449307477eddc902119ed57664beb8b2f
REM Trk 05: 4dae8bc6ab832076d9e020a72c0264f33c394a31
REM Trk 06: 62f04d7dc123e696a45b07d9dc18268162cc5be0
REM Trk 07: 985fd00f77805e11047e6c43ebc14220bff6c449
REM Trk 08: c27ef963a248046e0ab9f45b43392ad3feac72aa
REM Trk 09: 99daaaa7985b69e0dc07ce1f82766c44431f5123
REM Trk 10: 3595234f3ee31f60aecfa5a04986622d370b5704

REM Gap Append Method: None [crc32]
REM Trk 01: 22144d0f
REM Trk 02: 32333427
REM Trk 03: 72692892
REM Trk 04: 07f12516
REM Trk 05: f4dbb233
REM Trk 06: e5561988
REM Trk 07: 894858bf
REM Trk 08: a45fcabc
REM Trk 09: d4601854
REM Trk 10: a529613d
REM Gap 02: 827af62a
REM Gap 03: 7abe247f
REM Gap 10: f85fa424

REM Gap Append Method: None [md5]
REM Trk 01: ad1067d0bcc2ffeea540d3b985c51188
REM Trk 02: 14c731a8aa57285c25eba77c216f5e54
REM Trk 03: b3669a9b3eae19bbb7dfefcabb766291
REM Trk 04: e1d5748e589508c9aad12e282726b68b
REM Trk 05: cc77fd08e199f837879f670a66cda249
REM Trk 06: 38b4e0bc1446f7f8b954c20ae4b83516
REM Trk 07: 125134f252260f5411f4d8a05d9594d3
REM Trk 08: ea971b4915148663875e3ed87b3e9a4b
REM Trk 09: b209a969628afef4fd06b8bfa85730a8
REM Trk 10: b8f8df5d68470fd4e63aebe7b023c00d
REM Gap 02: 81b839ffd4ac0e6f7233b24c50c2b29a
REM Gap 03: 9df204fbc98bb8965081cb30a89715fc
REM Gap 10: 7f24b225ebb6dc2203fe93b6e6eb502f

REM Gap Append Method: None [sha1]
REM Trk 01: 3b472f5e80bbf8259e09f8e4f547567bddb02490
REM Trk 02: 5143835ccedb4d58e75504dee6e071e70312eb99
REM Trk 03: 68e6cb1e8a03a96252ef7a43d41294696fe63bba
REM Trk 04: a625ca4449307477eddc902119ed57664beb8b2f
REM Trk 05: 4dae8bc6ab832076d9e020a72c0264f33c394a31
REM Trk 06: 62f04d7dc123e696a45b07d9dc18268162cc5be0
REM Trk 07: 985fd00f77805e11047e6c43ebc14220bff6c449
REM Trk 08: c27ef963a248046e0ab9f45b43392ad3feac72aa
REM Trk 09: 670e697138d9a37ff583f8c91698485855899502
REM Trk 10: 3595234f3ee31f60aecfa5a04986622d370b5704
REM Gap 02: a5591b4b16bfa8856e500cde408ad601734109d8
REM Gap 03: cbe29e0bd725ef1194f8c47619dd42078e841de2
REM Gap 10: 14ef639d948bdfb91c966fbfb093dedf976b662f

REM Gap Append Method: Next [crc32]
REM Trk 01: 22144d0f
REM Trk 02: 8adb820b
REM Trk 03: 80f90949
REM Trk 04: 07f12516
REM Trk 05: f4dbb233
REM Trk 06: e5561988
REM Trk 07: 894858bf
REM Trk 08: a45fcabc
REM Trk 09: d4601854
REM Trk 10: 4e2a438a

REM Gap Append Method: Next [md5]
REM Trk 01: ad1067d0bcc2ffeea540d3b985c51188
REM Trk 02: 9544f3f0c4894e5ec41c2cbd69ef84b3
REM Trk 03: 47860c060cd21beb0da78a434b9c1973
REM Trk 04: e1d5748e589508c9aad12e282726b68b
REM Trk 05: cc77fd08e199f837879f670a66cda249
REM Trk 06: 38b4e0bc1446f7f8b954c20ae4b83516
REM Trk 07: 125134f252260f5411f4d8a05d9594d3
REM Trk 08: ea971b4915148663875e3ed87b3e9a4b
REM Trk 09: b209a969628afef4fd06b8bfa85730a8
REM Trk 10: e78508cd0765efb748ce38a73c8da585

REM Gap Append Method: Next [sha1]
REM Trk 01: 3b472f5e80bbf8259e09f8e4f547567bddb02490
REM Trk 02: 8071eb81e268cb08db147b6097830e9e985c7bbe
REM Trk 03: 9ab1f710b84db1cc3ca6ab47727fb9ef505db607
REM Trk 04: a625ca4449307477eddc902119ed57664beb8b2f
REM Trk 05: 4dae8bc6ab832076d9e020a72c0264f33c394a31
REM Trk 06: 62f04d7dc123e696a45b07d9dc18268162cc5be0
REM Trk 07: 985fd00f77805e11047e6c43ebc14220bff6c449
REM Trk 08: c27ef963a248046e0ab9f45b43392ad3feac72aa
REM Trk 09: 670e697138d9a37ff583f8c91698485855899502
REM Trk 10: 64b8a27fb39c21862a21912a4b0f9a0882d5dd22

